<svg width="2000" height="750" viewBox="0 0 2000 750" fill="none" xmlns="http://www.w3.org/2000/svg">
<rect width="2000" height="750" fill="black"/>
<path d="M371.202 171C489.219 171 585.404 262.119 585.404 375.139C585.404 488.158 489.219 579.278 371.202 579.278C253.185 579.278 157 488.158 157 375.139C157 262.119 253.185 171 371.202 171Z" fill="#64ACB8" stroke="white" stroke-width="12"/>
<path d="M348.42 556.275C329.896 553.839 311.637 550.376 293.246 542.048C269.91 531.481 252.831 520.187 241.196 510.124C223.822 495.098 209.701 474.423 200.217 453.503C190.323 431.68 187.78 415.692 186.022 391.795C184.022 364.603 185.48 348.961 192.962 322.742C197.319 307.472 203.583 301.384 211.006 287.347C217.455 275.154 218.683 265.54 229.018 256.405C237.292 249.092 243.695 247.295 253.655 242.525C265.571 236.818 272.877 235.062 285.233 230.38C304.959 222.905 316.271 219.381 335.895 211.642C352.962 204.911 361.06 195.823 379.271 193.598C387.476 192.595 392.199 192.922 400.438 193.598C417.013 194.957 426.357 197.666 441.731 204.008C456.384 210.052 464.053 215.031 476.779 224.481C489.557 233.97 496.303 240.122 506.621 252.241C515.588 262.774 519.593 269.55 526.747 281.39C538.095 300.169 545.088 310.933 551.037 332.052C556.694 352.132 557.448 364.289 556.936 385.144C556.441 405.3 555.08 416.943 548.955 436.153C543.284 453.938 538.72 463.805 528.135 479.182C520.184 490.732 514.637 496.519 504.539 506.248C494.967 515.47 489.095 520.196 478.167 527.762C468.574 534.403 463.358 537.298 452.835 542.336C440.889 548.056 435.114 550.092 422.299 553.44C413.479 555.745 407.119 556.485 398.041 557.316C391.101 557.951 382.864 557.974 374.445 557.951C363.697 557.923 359.075 557.677 348.42 556.275Z" fill="#5294A2" stroke="#5294A2" stroke-width="2"/>
<path d="M445.87 525.609C437.345 529.546 432.496 531.103 423.661 534.284C416.766 536.767 404.923 539.142 400.412 539.836C396.167 540.489 381.8 541.803 368.488 541.224C352.526 540.53 341.075 539.697 322.336 534.978C310.538 532.007 294.923 525.956 283.125 519.363C271.327 512.77 263.212 506.449 256.753 500.625C248.985 493.621 244.769 488.355 239.055 480.845C230.505 469.608 225.869 461.066 219.623 447.88C212.531 432.908 210.319 423.707 208.172 407.281C206.589 395.169 206.652 387.224 206.784 375.009C206.961 358.668 209.746 340.656 212.683 330.94C215.621 321.224 218.582 311.508 227.951 299.363C232.997 292.822 239.081 287.573 245.996 283.053C255.558 276.802 261.418 275.511 272.021 271.255C280.942 267.675 285.952 265.686 294.923 262.233C304.648 258.491 309.676 254.838 319.907 252.864C331.484 250.631 338.325 252.206 350.097 252.864C360.436 253.442 366.114 255.803 376.469 255.64C385.477 255.498 390.39 253.582 399.371 252.864C416.932 251.459 427.419 248.481 444.482 252.864C453.841 255.268 459.001 257.426 467.384 262.233C481.443 270.297 487.715 277.749 497.92 290.34C511.09 306.59 516.213 317.836 523.251 337.533C527.996 350.811 529.745 358.65 531.926 372.58C534.174 386.936 535.735 395.938 534.355 410.404C533.179 422.74 531.206 431.224 527.415 443.022C523.625 454.82 519.848 460.813 512.841 471.476C504.86 483.621 496.879 490.908 493.409 494.379C489.245 498.196 476.977 508.381 467.731 514.158C459.548 519.27 454.628 521.563 445.87 525.609Z" fill="#4A7973" stroke="#4A7973" stroke-width="4"/>
<path d="M474.262 485.486C469.573 489.897 466.219 492.718 461.076 496.59C452.054 503.382 436.186 511.855 418.048 517.411C401.389 522.513 390.355 523.26 372.937 523.657C355.519 524.053 340.767 522.157 321.234 516.37C307.721 512.366 299.83 510.027 287.921 502.489C277.128 495.658 271.687 490.596 263.284 480.975C256.039 472.681 252.366 467.516 247.322 457.726C242.237 447.856 239.805 441.89 237.606 431.007C234.681 416.528 234.132 407.889 235.524 393.183C236.651 381.273 238.145 374.01 242.811 362.994C245.751 356.054 253.221 342.521 260.161 335.928C270.956 325.672 276.566 320.038 288.615 311.29C295.428 306.344 302.138 302.141 310.13 299.492C314.318 298.104 316.826 297.616 321.234 297.41C327.111 297.136 330.371 298.412 336.155 299.492C345.105 301.164 349.906 303.071 358.71 305.391C367.387 307.679 372.137 309.441 380.918 311.29C389.377 313.072 394.229 313.489 402.779 314.761C411.575 316.069 416.562 316.428 425.335 317.884C432.545 319.08 436.639 319.566 443.726 321.354C452.452 323.555 457.861 324.026 465.587 328.641C471.367 332.093 473.977 335.02 478.773 339.745C484.805 345.687 487.923 349.379 492.653 356.401C497.294 363.29 499.335 367.552 502.716 375.139C504.499 379.138 505.593 381.364 506.881 385.549C508.186 389.792 508.81 392.243 509.31 396.653C509.859 401.501 510.216 408.436 510.004 413.31C509.562 423.419 508.372 429.25 506.881 434.824C505.462 440.125 504.275 443.353 502.022 448.357C499.683 453.554 497.866 456.78 494.735 461.543C491.608 466.301 489.447 469.043 485.713 473.341C481.377 478.333 479.079 480.956 474.262 485.486Z" fill="#3C6F82" stroke="#3C6F82" stroke-width="6"/>
<path d="M264.891 388.846C268.968 380.491 272.974 375.374 279.465 368.72C286.427 361.582 291.998 359.053 301.326 355.534C309.855 352.316 315.143 351.768 324.229 351.022C339.859 349.739 348.51 354.166 364.134 355.534C376.041 356.576 382.728 358.107 394.67 357.616C409.385 357.011 417.324 348.317 431.8 351.022C441.931 352.916 447.536 355.891 455.743 362.127C462.616 367.349 465.87 371.257 470.664 378.436C476.702 387.477 479.483 393.416 481.421 404.114C483.526 415.734 482.641 422.87 479.686 434.303C477.354 443.325 472.734 456.307 464.418 467.269C454.494 480.35 446.691 485.327 432.147 492.947C418.839 499.919 409.887 502.255 395.017 504.398C382.934 506.139 375.282 506.12 363.093 505.439C347.542 504.571 338.403 503.484 323.535 498.846C312.628 495.444 306.06 492.56 296.468 486.354C285.929 479.535 280.081 474.769 272.872 464.493C266.153 454.915 263.869 447.899 260.38 436.732C258.645 431.18 257.258 421.256 258.645 411.401C259.942 402.181 260.808 397.214 264.891 388.846Z" fill="#4C878F" stroke="#4C878F" stroke-width="8"/>
<path d="M394.451 388.673C378.892 392.151 356.281 402.553 356.281 402.553C356.281 402.553 336.391 411.687 325.745 421.638C320.054 426.958 317.07 429.966 312.906 436.56C308.047 444.251 308.047 448.705 308.047 453.216C308.047 460.55 310.185 464.329 314.988 469.872C319.888 475.527 323.54 478.024 330.256 481.323C339.972 486.096 349.785 488.653 362.18 489.304C376.049 490.033 383.008 488.644 396.533 485.487C404.422 483.646 411.12 481.069 418.395 477.506C427.522 473.036 431.928 469.525 439.215 462.585C446.21 455.923 450.11 450.605 453.095 441.418C455.12 435.183 455.271 430.955 454.83 424.414C454.376 417.691 453.217 413.495 450.319 407.411C448.007 402.559 446.493 400.1 442.685 396.307C439.09 392.726 435.52 390.742 430.887 388.673C424.357 385.757 420.13 385.897 413.537 385.897C406.943 385.897 401.691 387.055 394.451 388.673Z" fill="#355D5D" stroke="#355D5D" stroke-width="10"/>
<path d="M368.526 442.862C373.205 437.831 378.866 435.244 385.514 432.525C391.37 430.13 398.232 428.941 401.353 428.828C404.474 428.715 412.379 429.467 415.784 434.21C419.103 438.833 419.268 444.153 415.963 448.787C409.353 458.053 398.403 462.518 392.562 464.216C384.364 466.598 376.364 467.579 371.421 465.327C367.693 463.628 365.124 461.243 364.185 457.255C362.834 451.522 364.514 447.174 368.526 442.862Z" fill="#284843" stroke="#284843" stroke-width="12"/>
<circle cx="475.65" cy="386.937" r="9.45112" stroke="white" stroke-width="4"/>
<circle cx="292.432" cy="308.514" r="9.45112" stroke="white" stroke-width="4"/>
<circle cx="252.18" cy="495.896" r="9.45112" stroke="white" stroke-width="4"/>
<circle opacity="0.86" cx="454.136" cy="210.66" r="9.45112" stroke="white" stroke-width="4"/>
<path d="M776.4 396.6V430.2H759.4V397H742.8V380.4H710V430.2H693V313.6H710V363.4H742.8V346.8H759.4V313.6H776.4V347.2H759.8V363.8H743.2V380H759.8V396.6H776.4ZM893.783 413.2V430.2H810.383V313.6H893.783V330.6H827.383V363.4H877.183V380.4H827.383V413.2H893.783ZM944.766 363.4H994.166V330.6H944.766V363.4ZM1011.17 330.2V363.8H994.566V380.4H944.766V430.2H927.766V313.6H994.566V330.2H1011.17ZM1128.55 413.2V430.2H1045.15V313.6H1062.15V413.2H1128.55ZM1245.93 413.2V430.2H1162.53V313.6H1245.93V330.6H1179.53V363.4H1229.33V380.4H1179.53V413.2H1245.93ZM1296.91 363.4H1346.31V330.6H1296.91V363.4ZM1363.31 380V430.2H1346.31V380.4H1296.91V430.2H1279.91V313.6H1346.71V330.2H1363.31V363.8H1346.71V380H1363.31ZM1480.7 413.2V430.2H1397.3V396.6H1413.9V380H1430.5V363.4H1463.7V330.6H1414.3V347.2H1397.3V330.2H1413.9V313.6H1464.1V330.2H1480.7V363.8H1464.1V380.4H1430.9V397H1414.3V413.2H1480.7ZM1598.08 413.2V430.2H1514.68V396.6H1531.28V380H1547.88V363.4H1581.08V330.6H1531.68V347.2H1514.68V330.2H1531.28V313.6H1581.48V330.2H1598.08V363.8H1581.48V380.4H1548.28V397H1531.68V413.2H1598.08ZM1649.06 363.4H1698.46V330.6H1649.06V363.4ZM1649.06 413.2H1698.46V380.4H1649.06V413.2ZM1715.46 380V413.6H1698.86V430.2H1632.06V313.6H1698.86V330.2H1715.46V363.8H1698.86V380H1715.46Z" fill="white"/>
</svg>
